<svg xmlns="http://www.w3.org/2000/svg" fill="none" viewBox="0 0 96 96" id="ImageEdit"><circle cx="35" cy="31" r="6" stroke="#555555" stroke-width="5" class="colorStroke000000 svgStroke"></circle><path stroke="#555555" stroke-linecap="round" stroke-width="5" d="M52.5 9H24C15.7157 9 9 15.7157 9 24V71C9 79.2843 15.7157 86 24 86H71C79.2843 86 86 79.2843 86 71V52.5V49.3137C86 47.192 85.1571 45.1571 83.6569 43.6569L79.182 39.182C77.4246 37.4246 74.5754 37.4246 72.818 39.182L51.682 60.318C49.9246 62.0754 47.0754 62.0754 45.318 60.318L39.682 54.682C37.9246 52.9246 35.0754 52.9246 33.318 54.682L11 77" class="colorStroke000000 svgStroke"></path><path stroke="#555555" stroke-width="5" d="M71.3881 19.2958C71.5953 18.6343 71.9595 18.0327 72.4496 17.5426L83.5324 6.45975C84.8914 5.10082 87.0946 5.10081 88.4536 6.45975V6.45975C89.8125 7.81868 89.8125 10.022 88.4536 11.3809L77.3708 22.4637C76.8806 22.9539 76.279 23.3181 75.6175 23.5252L70.0001 25.2839C69.7722 25.3552 69.5581 25.1411 69.6295 24.9133L71.3881 19.2958Z" class="colorStroke000000 svgStroke"></path></svg>